G04 MADE WITH FRITZING*
G04 WWW.FRITZING.ORG*
G04 DOUBLE SIDED*
G04 HOLES PLATED*
G04 CONTOUR ON CENTER OF CONTOUR VECTOR*
%ASAXBY*%
%FSLAX23Y23*%
%MOIN*%
%OFA0B0*%
%SFA1.0B1.0*%
%ADD10C,0.078740*%
%ADD11C,0.055433*%
%ADD12C,0.075000*%
%ADD13C,0.078000*%
%ADD14C,0.082000*%
%ADD15C,0.070000*%
%ADD16C,0.070866*%
%ADD17C,0.092992*%
%ADD18R,0.078000X0.078000*%
%ADD19R,0.082000X0.082000*%
%ADD20R,0.075000X0.075000*%
%ADD21R,0.001000X0.001000*%
%LNCOPPER1*%
G90*
G70*
G54D10*
X116Y431D03*
X116Y183D03*
X313Y313D03*
X116Y431D03*
X116Y183D03*
X313Y313D03*
G54D11*
X2266Y881D03*
X2166Y881D03*
X2166Y798D03*
X2266Y798D03*
X2266Y881D03*
X2166Y881D03*
X2166Y798D03*
X2266Y798D03*
G54D12*
X2266Y231D03*
X2266Y631D03*
X1916Y1181D03*
X2316Y1181D03*
G54D13*
X816Y1581D03*
X716Y1581D03*
X616Y1581D03*
G54D14*
X1016Y181D03*
X718Y181D03*
G54D12*
X466Y831D03*
X466Y431D03*
X1566Y231D03*
X1166Y231D03*
X1216Y981D03*
X1116Y981D03*
X1016Y981D03*
X916Y981D03*
X816Y981D03*
X716Y981D03*
X616Y981D03*
X616Y681D03*
X716Y681D03*
X816Y681D03*
X916Y681D03*
X1016Y681D03*
X1116Y681D03*
X1216Y681D03*
X1916Y981D03*
X1916Y681D03*
X1816Y981D03*
X1816Y681D03*
X1716Y981D03*
X1716Y681D03*
X1616Y981D03*
X1616Y681D03*
G54D15*
X1766Y1231D03*
X1766Y1131D03*
X1216Y1531D03*
X1316Y1531D03*
G54D12*
X1466Y1431D03*
X1466Y1031D03*
X1066Y1181D03*
X1066Y1581D03*
X366Y681D03*
X366Y1081D03*
X466Y1231D03*
X866Y1231D03*
X766Y1331D03*
X366Y1331D03*
G54D14*
X716Y381D03*
X1014Y381D03*
G54D12*
X666Y531D03*
X1566Y531D03*
G54D16*
X266Y1181D03*
X266Y1081D03*
X266Y981D03*
G54D17*
X516Y331D03*
X266Y531D03*
G54D18*
X816Y1581D03*
G54D19*
X1017Y181D03*
G54D20*
X1216Y981D03*
X1916Y981D03*
G54D19*
X715Y381D03*
G54D21*
X72Y471D02*
X159Y471D01*
X67Y470D02*
X164Y470D01*
X64Y469D02*
X167Y469D01*
X61Y468D02*
X170Y468D01*
X59Y467D02*
X172Y467D01*
X57Y466D02*
X174Y466D01*
X55Y465D02*
X176Y465D01*
X54Y464D02*
X177Y464D01*
X53Y463D02*
X178Y463D01*
X51Y462D02*
X180Y462D01*
X50Y461D02*
X181Y461D01*
X49Y460D02*
X182Y460D01*
X48Y459D02*
X183Y459D01*
X47Y458D02*
X184Y458D01*
X46Y457D02*
X185Y457D01*
X46Y456D02*
X185Y456D01*
X45Y455D02*
X186Y455D01*
X44Y454D02*
X187Y454D01*
X43Y453D02*
X188Y453D01*
X43Y452D02*
X188Y452D01*
X42Y451D02*
X110Y451D01*
X121Y451D02*
X189Y451D01*
X42Y450D02*
X107Y450D01*
X124Y450D02*
X189Y450D01*
X41Y449D02*
X105Y449D01*
X126Y449D02*
X190Y449D01*
X41Y448D02*
X104Y448D01*
X127Y448D02*
X190Y448D01*
X40Y447D02*
X102Y447D01*
X129Y447D02*
X191Y447D01*
X40Y446D02*
X101Y446D01*
X130Y446D02*
X191Y446D01*
X40Y445D02*
X100Y445D01*
X131Y445D02*
X191Y445D01*
X39Y444D02*
X100Y444D01*
X131Y444D02*
X192Y444D01*
X39Y443D02*
X99Y443D01*
X132Y443D02*
X192Y443D01*
X39Y442D02*
X98Y442D01*
X133Y442D02*
X192Y442D01*
X38Y441D02*
X98Y441D01*
X133Y441D02*
X193Y441D01*
X38Y440D02*
X97Y440D01*
X134Y440D02*
X193Y440D01*
X38Y439D02*
X97Y439D01*
X134Y439D02*
X193Y439D01*
X38Y438D02*
X96Y438D01*
X135Y438D02*
X193Y438D01*
X38Y437D02*
X96Y437D01*
X135Y437D02*
X193Y437D01*
X37Y436D02*
X96Y436D01*
X135Y436D02*
X194Y436D01*
X37Y435D02*
X96Y435D01*
X135Y435D02*
X194Y435D01*
X37Y434D02*
X96Y434D01*
X135Y434D02*
X194Y434D01*
X37Y433D02*
X95Y433D01*
X136Y433D02*
X194Y433D01*
X37Y432D02*
X95Y432D01*
X136Y432D02*
X194Y432D01*
X37Y431D02*
X95Y431D01*
X136Y431D02*
X194Y431D01*
X37Y430D02*
X96Y430D01*
X135Y430D02*
X194Y430D01*
X37Y429D02*
X96Y429D01*
X135Y429D02*
X194Y429D01*
X37Y428D02*
X96Y428D01*
X135Y428D02*
X194Y428D01*
X38Y427D02*
X96Y427D01*
X135Y427D02*
X193Y427D01*
X38Y426D02*
X96Y426D01*
X135Y426D02*
X193Y426D01*
X38Y425D02*
X97Y425D01*
X134Y425D02*
X193Y425D01*
X38Y424D02*
X97Y424D01*
X134Y424D02*
X193Y424D01*
X38Y423D02*
X98Y423D01*
X133Y423D02*
X193Y423D01*
X39Y422D02*
X98Y422D01*
X133Y422D02*
X192Y422D01*
X39Y421D02*
X99Y421D01*
X132Y421D02*
X192Y421D01*
X39Y420D02*
X99Y420D01*
X132Y420D02*
X192Y420D01*
X39Y419D02*
X100Y419D01*
X131Y419D02*
X192Y419D01*
X40Y418D02*
X101Y418D01*
X130Y418D02*
X191Y418D01*
X40Y417D02*
X102Y417D01*
X129Y417D02*
X191Y417D01*
X41Y416D02*
X104Y416D01*
X128Y416D02*
X190Y416D01*
X41Y415D02*
X105Y415D01*
X126Y415D02*
X190Y415D01*
X42Y414D02*
X107Y414D01*
X124Y414D02*
X189Y414D01*
X42Y413D02*
X110Y413D01*
X121Y413D02*
X189Y413D01*
X43Y412D02*
X188Y412D01*
X43Y411D02*
X188Y411D01*
X44Y410D02*
X187Y410D01*
X45Y409D02*
X186Y409D01*
X45Y408D02*
X186Y408D01*
X46Y407D02*
X185Y407D01*
X47Y406D02*
X184Y406D01*
X48Y405D02*
X183Y405D01*
X49Y404D02*
X182Y404D01*
X50Y403D02*
X181Y403D01*
X51Y402D02*
X180Y402D01*
X52Y401D02*
X179Y401D01*
X54Y400D02*
X177Y400D01*
X55Y399D02*
X176Y399D01*
X57Y398D02*
X174Y398D01*
X58Y397D02*
X173Y397D01*
X61Y396D02*
X170Y396D01*
X63Y395D02*
X168Y395D01*
X66Y394D02*
X165Y394D01*
X71Y393D02*
X160Y393D01*
X307Y392D02*
X318Y392D01*
X302Y391D02*
X323Y391D01*
X299Y390D02*
X326Y390D01*
X297Y389D02*
X328Y389D01*
X294Y388D02*
X330Y388D01*
X293Y387D02*
X332Y387D01*
X291Y386D02*
X334Y386D01*
X290Y385D02*
X335Y385D01*
X288Y384D02*
X336Y384D01*
X287Y383D02*
X338Y383D01*
X286Y382D02*
X339Y382D01*
X285Y381D02*
X340Y381D01*
X284Y380D02*
X341Y380D01*
X283Y379D02*
X342Y379D01*
X282Y378D02*
X342Y378D01*
X282Y377D02*
X343Y377D01*
X281Y376D02*
X344Y376D01*
X280Y375D02*
X345Y375D01*
X279Y374D02*
X345Y374D01*
X279Y373D02*
X346Y373D01*
X278Y372D02*
X346Y372D01*
X278Y371D02*
X347Y371D01*
X277Y370D02*
X347Y370D01*
X277Y369D02*
X348Y369D01*
X276Y368D02*
X348Y368D01*
X276Y367D02*
X349Y367D01*
X276Y366D02*
X349Y366D01*
X275Y365D02*
X349Y365D01*
X275Y364D02*
X350Y364D01*
X275Y363D02*
X350Y363D01*
X275Y362D02*
X350Y362D01*
X274Y361D02*
X350Y361D01*
X274Y360D02*
X351Y360D01*
X274Y359D02*
X351Y359D01*
X274Y358D02*
X351Y358D01*
X274Y357D02*
X351Y357D01*
X274Y356D02*
X351Y356D01*
X274Y355D02*
X351Y355D01*
X274Y354D02*
X351Y354D01*
X273Y353D02*
X351Y353D01*
X273Y352D02*
X351Y352D01*
X273Y351D02*
X351Y351D01*
X273Y350D02*
X351Y350D01*
X273Y349D02*
X351Y349D01*
X273Y348D02*
X351Y348D01*
X273Y347D02*
X351Y347D01*
X273Y346D02*
X351Y346D01*
X273Y345D02*
X351Y345D01*
X273Y344D02*
X351Y344D01*
X273Y343D02*
X351Y343D01*
X273Y342D02*
X351Y342D01*
X273Y341D02*
X351Y341D01*
X273Y340D02*
X351Y340D01*
X273Y339D02*
X351Y339D01*
X273Y338D02*
X351Y338D01*
X273Y337D02*
X351Y337D01*
X273Y336D02*
X351Y336D01*
X273Y335D02*
X351Y335D01*
X273Y334D02*
X351Y334D01*
X273Y333D02*
X308Y333D01*
X317Y333D02*
X351Y333D01*
X273Y332D02*
X304Y332D01*
X320Y332D02*
X351Y332D01*
X273Y331D02*
X302Y331D01*
X322Y331D02*
X351Y331D01*
X273Y330D02*
X301Y330D01*
X324Y330D02*
X351Y330D01*
X273Y329D02*
X299Y329D01*
X325Y329D02*
X351Y329D01*
X273Y328D02*
X298Y328D01*
X326Y328D02*
X351Y328D01*
X273Y327D02*
X297Y327D01*
X327Y327D02*
X351Y327D01*
X273Y326D02*
X297Y326D01*
X328Y326D02*
X351Y326D01*
X273Y325D02*
X296Y325D01*
X329Y325D02*
X351Y325D01*
X273Y324D02*
X295Y324D01*
X330Y324D02*
X351Y324D01*
X273Y323D02*
X295Y323D01*
X330Y323D02*
X351Y323D01*
X273Y322D02*
X294Y322D01*
X331Y322D02*
X351Y322D01*
X273Y321D02*
X294Y321D01*
X331Y321D02*
X351Y321D01*
X273Y320D02*
X293Y320D01*
X331Y320D02*
X351Y320D01*
X273Y319D02*
X293Y319D01*
X332Y319D02*
X351Y319D01*
X273Y318D02*
X293Y318D01*
X332Y318D02*
X351Y318D01*
X273Y317D02*
X292Y317D01*
X332Y317D02*
X351Y317D01*
X273Y316D02*
X292Y316D01*
X332Y316D02*
X351Y316D01*
X273Y315D02*
X292Y315D01*
X332Y315D02*
X351Y315D01*
X273Y314D02*
X292Y314D01*
X332Y314D02*
X351Y314D01*
X273Y313D02*
X292Y313D01*
X332Y313D02*
X351Y313D01*
X273Y312D02*
X292Y312D01*
X332Y312D02*
X351Y312D01*
X273Y311D02*
X292Y311D01*
X332Y311D02*
X351Y311D01*
X273Y310D02*
X293Y310D01*
X332Y310D02*
X351Y310D01*
X273Y309D02*
X293Y309D01*
X332Y309D02*
X351Y309D01*
X273Y308D02*
X293Y308D01*
X332Y308D02*
X351Y308D01*
X273Y307D02*
X293Y307D01*
X331Y307D02*
X351Y307D01*
X273Y306D02*
X294Y306D01*
X331Y306D02*
X351Y306D01*
X273Y305D02*
X294Y305D01*
X330Y305D02*
X351Y305D01*
X273Y304D02*
X295Y304D01*
X330Y304D02*
X351Y304D01*
X273Y303D02*
X295Y303D01*
X329Y303D02*
X351Y303D01*
X273Y302D02*
X296Y302D01*
X328Y302D02*
X351Y302D01*
X273Y301D02*
X297Y301D01*
X328Y301D02*
X351Y301D01*
X273Y300D02*
X298Y300D01*
X327Y300D02*
X351Y300D01*
X273Y299D02*
X299Y299D01*
X326Y299D02*
X351Y299D01*
X273Y298D02*
X300Y298D01*
X324Y298D02*
X351Y298D01*
X273Y297D02*
X302Y297D01*
X323Y297D02*
X351Y297D01*
X273Y296D02*
X304Y296D01*
X321Y296D02*
X351Y296D01*
X273Y295D02*
X306Y295D01*
X318Y295D02*
X351Y295D01*
X273Y294D02*
X351Y294D01*
X273Y293D02*
X351Y293D01*
X273Y292D02*
X351Y292D01*
X273Y291D02*
X351Y291D01*
X273Y290D02*
X351Y290D01*
X273Y289D02*
X351Y289D01*
X273Y288D02*
X351Y288D01*
X273Y287D02*
X351Y287D01*
X273Y286D02*
X351Y286D01*
X273Y285D02*
X351Y285D01*
X273Y284D02*
X351Y284D01*
X273Y283D02*
X351Y283D01*
X273Y282D02*
X351Y282D01*
X273Y281D02*
X351Y281D01*
X273Y280D02*
X351Y280D01*
X273Y279D02*
X351Y279D01*
X273Y278D02*
X351Y278D01*
X273Y277D02*
X351Y277D01*
X273Y276D02*
X351Y276D01*
X273Y275D02*
X351Y275D01*
X274Y274D02*
X351Y274D01*
X274Y273D02*
X351Y273D01*
X274Y272D02*
X351Y272D01*
X274Y271D02*
X351Y271D01*
X274Y270D02*
X351Y270D01*
X274Y269D02*
X351Y269D01*
X274Y268D02*
X351Y268D01*
X274Y267D02*
X350Y267D01*
X274Y266D02*
X350Y266D01*
X275Y265D02*
X350Y265D01*
X275Y264D02*
X350Y264D01*
X275Y263D02*
X350Y263D01*
X276Y262D02*
X349Y262D01*
X276Y261D02*
X349Y261D01*
X276Y260D02*
X348Y260D01*
X277Y259D02*
X348Y259D01*
X277Y258D02*
X348Y258D01*
X278Y257D02*
X347Y257D01*
X278Y256D02*
X347Y256D01*
X279Y255D02*
X346Y255D01*
X279Y254D02*
X345Y254D01*
X280Y253D02*
X345Y253D01*
X281Y252D02*
X344Y252D01*
X281Y251D02*
X343Y251D01*
X282Y250D02*
X343Y250D01*
X283Y249D02*
X342Y249D01*
X284Y248D02*
X341Y248D01*
X285Y247D02*
X340Y247D01*
X286Y246D02*
X339Y246D01*
X287Y245D02*
X338Y245D01*
X288Y244D02*
X337Y244D01*
X289Y243D02*
X335Y243D01*
X291Y242D02*
X334Y242D01*
X292Y241D02*
X333Y241D01*
X294Y240D02*
X331Y240D01*
X296Y239D02*
X329Y239D01*
X298Y238D02*
X327Y238D01*
X301Y237D02*
X324Y237D01*
X304Y236D02*
X320Y236D01*
X72Y223D02*
X159Y223D01*
X67Y222D02*
X164Y222D01*
X64Y221D02*
X167Y221D01*
X61Y220D02*
X170Y220D01*
X59Y219D02*
X172Y219D01*
X57Y218D02*
X174Y218D01*
X55Y217D02*
X176Y217D01*
X54Y216D02*
X177Y216D01*
X53Y215D02*
X178Y215D01*
X51Y214D02*
X180Y214D01*
X50Y213D02*
X181Y213D01*
X49Y212D02*
X182Y212D01*
X48Y211D02*
X183Y211D01*
X47Y210D02*
X184Y210D01*
X46Y209D02*
X185Y209D01*
X46Y208D02*
X185Y208D01*
X45Y207D02*
X186Y207D01*
X44Y206D02*
X187Y206D01*
X43Y205D02*
X188Y205D01*
X43Y204D02*
X188Y204D01*
X42Y203D02*
X110Y203D01*
X121Y203D02*
X189Y203D01*
X42Y202D02*
X107Y202D01*
X124Y202D02*
X189Y202D01*
X41Y201D02*
X105Y201D01*
X126Y201D02*
X190Y201D01*
X41Y200D02*
X104Y200D01*
X127Y200D02*
X190Y200D01*
X40Y199D02*
X102Y199D01*
X129Y199D02*
X191Y199D01*
X40Y198D02*
X101Y198D01*
X130Y198D02*
X191Y198D01*
X40Y197D02*
X100Y197D01*
X131Y197D02*
X191Y197D01*
X39Y196D02*
X100Y196D01*
X131Y196D02*
X192Y196D01*
X39Y195D02*
X99Y195D01*
X132Y195D02*
X192Y195D01*
X39Y194D02*
X98Y194D01*
X133Y194D02*
X192Y194D01*
X38Y193D02*
X98Y193D01*
X133Y193D02*
X193Y193D01*
X38Y192D02*
X97Y192D01*
X134Y192D02*
X193Y192D01*
X38Y191D02*
X97Y191D01*
X134Y191D02*
X193Y191D01*
X38Y190D02*
X96Y190D01*
X135Y190D02*
X193Y190D01*
X38Y189D02*
X96Y189D01*
X135Y189D02*
X193Y189D01*
X37Y188D02*
X96Y188D01*
X135Y188D02*
X194Y188D01*
X37Y187D02*
X96Y187D01*
X135Y187D02*
X194Y187D01*
X37Y186D02*
X96Y186D01*
X135Y186D02*
X194Y186D01*
X37Y185D02*
X95Y185D01*
X136Y185D02*
X194Y185D01*
X37Y184D02*
X95Y184D01*
X136Y184D02*
X194Y184D01*
X37Y183D02*
X95Y183D01*
X136Y183D02*
X194Y183D01*
X37Y182D02*
X96Y182D01*
X135Y182D02*
X194Y182D01*
X37Y181D02*
X96Y181D01*
X135Y181D02*
X194Y181D01*
X37Y180D02*
X96Y180D01*
X135Y180D02*
X194Y180D01*
X38Y179D02*
X96Y179D01*
X135Y179D02*
X193Y179D01*
X38Y178D02*
X96Y178D01*
X135Y178D02*
X193Y178D01*
X38Y177D02*
X97Y177D01*
X134Y177D02*
X193Y177D01*
X38Y176D02*
X97Y176D01*
X134Y176D02*
X193Y176D01*
X38Y175D02*
X98Y175D01*
X133Y175D02*
X193Y175D01*
X39Y174D02*
X98Y174D01*
X133Y174D02*
X192Y174D01*
X39Y173D02*
X99Y173D01*
X132Y173D02*
X192Y173D01*
X39Y172D02*
X99Y172D01*
X132Y172D02*
X192Y172D01*
X39Y171D02*
X100Y171D01*
X131Y171D02*
X192Y171D01*
X40Y170D02*
X101Y170D01*
X130Y170D02*
X191Y170D01*
X40Y169D02*
X102Y169D01*
X129Y169D02*
X191Y169D01*
X41Y168D02*
X104Y168D01*
X128Y168D02*
X190Y168D01*
X41Y167D02*
X105Y167D01*
X126Y167D02*
X190Y167D01*
X42Y166D02*
X107Y166D01*
X124Y166D02*
X189Y166D01*
X42Y165D02*
X110Y165D01*
X121Y165D02*
X189Y165D01*
X43Y164D02*
X188Y164D01*
X43Y163D02*
X188Y163D01*
X44Y162D02*
X187Y162D01*
X45Y161D02*
X186Y161D01*
X45Y160D02*
X186Y160D01*
X46Y159D02*
X185Y159D01*
X47Y158D02*
X184Y158D01*
X48Y157D02*
X183Y157D01*
X49Y156D02*
X182Y156D01*
X50Y155D02*
X181Y155D01*
X51Y154D02*
X180Y154D01*
X52Y153D02*
X179Y153D01*
X54Y152D02*
X177Y152D01*
X55Y151D02*
X176Y151D01*
X57Y150D02*
X174Y150D01*
X59Y149D02*
X172Y149D01*
X61Y148D02*
X170Y148D01*
X63Y147D02*
X168Y147D01*
X66Y146D02*
X165Y146D01*
X71Y145D02*
X160Y145D01*
D02*
G04 End of Copper1*
M02*