; NON-PLATED HOLES START AT T1
; THROUGH (PLATED) HOLES START AT T100
M48
INCH
T100C0.042000
T101C0.039370
T102C0.038000
T103C0.035000
T104C0.035433
T105C0.031496
T106C0.030000
%
T100
X007180Y001814
X010160Y001814
X007160Y003814
X010140Y003814
T101
X003128Y003133
X001160Y004314
X001160Y001834
T102
X007160Y015814
X006160Y015814
X008160Y015814
T103
X022660Y002314
X015660Y005314
X003660Y010814
X004660Y012314
X004660Y004314
X007160Y006814
X014660Y014314
X008660Y012314
X008160Y006814
X006160Y006814
X019160Y011814
X009160Y006814
X010660Y015814
X010160Y006814
X007160Y009814
X023160Y011814
X017160Y006814
X011160Y006814
X006160Y009814
X008160Y009814
X016160Y006814
X018160Y006814
X012160Y006814
X009160Y009814
X022660Y006314
X019160Y006814
X014660Y010314
X003660Y013314
X007660Y013314
X010160Y009814
X010660Y011814
X011660Y002314
X015660Y002314
X006660Y005314
X017160Y009814
X011160Y009814
X003660Y006814
X016160Y009814
X018160Y009814
X012160Y009814
X019160Y009814
X004660Y008314
T104
X022660Y007984
X021660Y007984
X022660Y008814
X021660Y008814
T105
X002660Y011814
X002660Y009814
X002660Y010814
T106
X005160Y003314
X017660Y011312
X002660Y005314
X017660Y012314
X013161Y015314
X012160Y015314
T00
M30
